<?xml version="1.0" encoding="iso-8859-1"?>
<!-- Generator: Adobe Illustrator 19.0.0, SVG Export Plug-In . SVG Version: 6.00 Build 0)  -->
<svg version="1.1" id="Capa_1" xmlns="http://www.w3.org/2000/svg" xmlns:xlink="http://www.w3.org/1999/xlink" x="0px" y="0px"
	 viewBox="0 0 512 512" style="enable-background:new 0 0 512 512;" xml:space="preserve">
<g>
	<rect y="256" style="fill:#F6AB27;" width="170.667" height="170.667"/>
	<g>
		<polygon style="fill:#EC9130;" points="44.912,300.912 44.912,381.754 0,426.667 0,256 		"/>
		<polygon style="fill:#EC9130;" points="170.667,256 170.667,426.667 125.754,381.754 125.754,300.912 		"/>
	</g>
	<rect x="44.912" y="300.912" style="fill:#FCCC88;" width="80.842" height="80.842"/>
	<rect x="170.667" y="256" style="fill:#5496CE;" width="170.667" height="170.667"/>
	<g>
		<polygon style="fill:#336A93;" points="215.579,300.912 215.579,381.754 170.667,426.667 170.667,256 		"/>
		<polygon style="fill:#336A93;" points="341.333,256 341.333,426.667 296.421,381.754 296.421,300.912 		"/>
	</g>
	<rect x="215.579" y="300.912" style="fill:#36B6D6;" width="80.842" height="80.842"/>
	<rect x="341.333" y="256" style="fill:#FF6C77;" width="170.667" height="170.667"/>
	<g>
		<polygon style="fill:#ED634C;" points="512,256 512,426.667 467.088,381.754 467.088,300.912 		"/>
		<polygon style="fill:#ED634C;" points="386.246,300.912 386.246,381.754 341.333,426.667 341.333,256 		"/>
	</g>
	<rect x="386.246" y="300.912" style="fill:#FE9189;" width="80.842" height="80.842"/>
	<rect x="170.667" y="85.333" style="fill:#5DC382;" width="170.667" height="170.667"/>
	<g>
		<polygon style="fill:#23B972;" points="215.579,130.246 215.579,211.088 170.667,256 170.667,85.333 		"/>
		<polygon style="fill:#23B972;" points="341.333,85.333 341.333,256 296.421,211.088 296.421,130.246 		"/>
	</g>
	<rect x="215.579" y="130.246" style="fill:#8ED7AE;" width="80.842" height="80.842"/>
</g>
<g>
</g>
<g>
</g>
<g>
</g>
<g>
</g>
<g>
</g>
<g>
</g>
<g>
</g>
<g>
</g>
<g>
</g>
<g>
</g>
<g>
</g>
<g>
</g>
<g>
</g>
<g>
</g>
<g>
</g>
</svg>
